####
#
# OBJ File Generated by Meshlab
#
####
# Object RW_Pitch.obj
#
# Vertices: 30
# Faces: 56
#
####
vn 4.358770 -1.473589 -2.114750
v 0.150000 -0.000497 -0.000050
vn -4.358763 -1.473604 -2.114756
v 0.000000 -0.000497 -0.000050
vn -2.634688 -2.497812 -1.734907
v 0.000000 -0.000411 -0.000285
vn 2.634688 -2.497816 -1.734901
v 0.150000 -0.000411 -0.000285
vn -2.634688 -1.341465 -2.729366
v 0.000000 -0.000221 -0.000449
vn 2.634687 -1.341472 -2.729363
v 0.150000 -0.000221 -0.000449
vn -2.634688 0.152255 -3.037398
v 0.000000 0.000025 -0.000499
vn 2.634689 0.152247 -3.037399
v 0.150000 0.000025 -0.000499
vn -2.634687 1.607685 -2.581534
v 0.000000 0.000264 -0.000424
vn 2.634688 1.607678 -2.581538
v 0.150000 0.000264 -0.000424
vn -2.634689 2.658787 -1.476421
v 0.000000 0.000437 -0.000243
vn 2.634689 2.658783 -1.476428
v 0.150000 0.000437 -0.000243
vn -2.634690 3.041212 0.000004
v 0.000000 0.000500 0.000000
vn 2.634690 3.041212 -0.000004
v 0.150000 0.000500 0.000000
vn -2.634688 2.658783 1.476428
v 0.000000 0.000437 0.000243
vn 2.634688 2.658787 1.476421
v 0.150000 0.000437 0.000243
vn -2.634687 1.607678 2.581538
v 0.000000 0.000264 0.000424
vn 2.634688 1.607685 2.581534
v 0.150000 0.000264 0.000424
vn -2.634689 0.152247 3.037399
v 0.000000 0.000025 0.000499
vn 2.634688 0.152255 3.037398
v 0.150000 0.000025 0.000499
vn -2.634689 -1.341472 2.729363
v 0.000000 -0.000221 0.000449
vn 2.634689 -1.341465 2.729366
v 0.150000 -0.000221 0.000449
vn -2.634687 -2.497816 1.734900
v 0.000000 -0.000411 0.000285
vn 2.634688 -2.497812 1.734907
v 0.150000 -0.000411 0.000285
vn -4.358770 -1.473589 2.114750
v 0.000000 -0.000497 0.000050
vn 4.358763 -1.473604 2.114756
v 0.150000 -0.000497 0.000050
vn 1.570796 -1.570728 1.570796
v 0.150000 -0.050000 0.000050
vn -1.570789 -1.570796 1.570796
v 0.000000 -0.050000 0.000050
vn 1.570789 -1.570796 -1.570796
v 0.150000 -0.050000 -0.000050
vn -1.570796 -1.570728 -1.570796
v 0.000000 -0.050000 -0.000050
# 30 vertices, 0 vertices normals

f 1//1 2//2 3//3
f 1//1 3//3 4//4
f 4//4 3//3 5//5
f 4//4 5//5 6//6
f 6//6 5//5 7//7
f 6//6 7//7 8//8
f 8//8 7//7 9//9
f 8//8 9//9 10//10
f 10//10 9//9 11//11
f 10//10 11//11 12//12
f 12//12 11//11 13//13
f 12//12 13//13 14//14
f 14//14 13//13 15//15
f 14//14 15//15 16//16
f 16//16 15//15 17//17
f 16//16 17//17 18//18
f 18//18 17//17 19//19
f 18//18 19//19 20//20
f 20//20 19//19 21//21
f 20//20 21//21 22//22
f 22//22 21//21 23//23
f 22//22 23//23 24//24
f 24//24 23//23 25//25
f 24//24 25//25 26//26
f 27//27 26//26 28//28
f 28//28 26//26 25//25
f 29//29 27//27 30//30
f 30//30 27//27 28//28
f 1//1 29//29 2//2
f 2//2 29//29 30//30
f 1//1 4//4 6//6
f 26//26 27//27 29//29
f 10//10 12//12 8//8
f 8//8 12//12 24//24
f 8//8 24//24 6//6
f 6//6 24//24 26//26
f 6//6 26//26 1//1
f 1//1 26//26 29//29
f 16//16 18//18 20//20
f 12//12 14//14 24//24
f 24//24 14//14 16//16
f 24//24 16//16 22//22
f 22//22 16//16 20//20
f 15//15 13//13 11//11
f 30//30 28//28 2//2
f 2//2 28//28 25//25
f 2//2 25//25 3//3
f 21//21 19//19 17//17
f 23//23 7//7 25//25
f 25//25 7//7 5//5
f 25//25 5//5 3//3
f 17//17 15//15 21//21
f 21//21 15//15 11//11
f 21//21 11//11 23//23
f 23//23 11//11 9//9
f 23//23 9//9 7//7
# 56 faces, 0 coords texture

# End of File
